# xmcd CD database file
#
# Track frame offsets:
#	150
#	13459
#	24824
#	35876
#	48177
#	60562
#	72280
#	83556
#	98411
#	109243
#	120967
#	135942
#	146422
#	160585
#	173857
#	186509
#	199978
#	213198
#	223431
#	237290
#
# Disc length: 3303 seconds
#
# Revision: 1
# Processed by: cddbd v1.5.2PL0 Copyright (c) Steve Scherf et al.
# Submitted via: CDex 1.51
#
DISCID=150ce514
DTITLE=SONNY TERRY and BROWNIE McGHEE - WHOOPIN' THE BLUES
DYEAR=1900
DGENRE=Blues
TTITLE0=THAT'S THE STUFF YOU GOTTA WATCH
TTITLE1=WORRIED LIFE BLUES
TTITLE2=LOVE HER WITH A FEELING
TTITLE3=WHOOPIN' THE BLUES
TTITLE4=THE WOMAN IS KILLING ME
TTITLE5=MEET YOU IN THE MORNING
TTITLE6=BULLDOG BLUES
TTITLE7=GOING DOWN SLOW
TTITLE8=STRANGER'S BLUES
TTITLE9=MEAN OLD FRISCO
TTITLE10=NEW BAD BLOOD BLUES
TTITLE11=FORGIVE ME
TTITLE12=SMILING AND CRYING BLUES
TTITLE13=LONESOME ROOM
TTITLE14=BOTTOM BLUES
TTITLE15=I'D LOVE TO LOVE YOU
TTITLE16=TELL ME BABY
TTITLE17=DANGEROUS WOMAN (WITH A 45 IN HER HAND)
TTITLE18=CLIMBING ON TOP OF THE HILL
TTITLE19=UNCLE BUD
EXTD=
EXTT0=
EXTT1=
EXTT2=
EXTT3=
EXTT4=
EXTT5=
EXTT6=
EXTT7=
EXTT8=
EXTT9=
EXTT10=
EXTT11=
EXTT12=
EXTT13=
EXTT14=
EXTT15=
EXTT16=
EXTT17=
EXTT18=
EXTT19=
PLAYORDER=
